<svg width="159" height="55" viewBox="0 0 159 55" fill="none" xmlns="http://www.w3.org/2000/svg">
<path d="M53.1852 4C55.0771 7.91616 58.0348 11.2196 61.7189 13.5312C65.403 15.8428 69.6641 17.069 74.0133 17.069C78.3626 17.069 82.6237 15.8428 86.3077 13.5312C89.9918 11.2196 92.9495 7.91616 94.8415 4" stroke="url(#paint0_linear_1_11)" stroke-width="7" stroke-miterlimit="10" stroke-linecap="round"/>
<path d="M60.2948 23.44C62.7075 26.4195 64.639 29.7583 66.0193 33.3351C67.6765 37.6565 68.4412 42.2689 68.2673 46.894L73.912 50.2537L79.7471 46.894C79.576 42.2688 80.3417 37.6568 81.9982 33.3351C83.3634 29.7511 85.2963 26.4101 87.7227 23.44" stroke="url(#paint1_linear_1_11)" stroke-width="7" stroke-miterlimit="10"/>
<path d="M115.842 40.4846H96.2081C96.3678 42.4235 97.0465 43.9416 98.2442 45.039C99.4443 46.1407 101.026 46.7321 102.654 46.6882C105.175 46.6882 106.969 45.6061 108.038 43.442H115.356C114.604 45.9964 113.039 48.2352 110.897 49.8176C108.698 51.4822 106 52.3144 102.802 52.3144C100.372 52.3541 97.9734 51.7603 95.8427 50.5915C93.8034 49.4646 92.1325 47.7734 91.0302 45.7208C89.8507 43.4802 89.259 40.977 89.3104 38.4454C89.3104 35.665 89.8755 33.2255 91.0057 31.127C92.0835 29.0825 93.7347 27.3971 95.7567 26.2777C97.9027 25.1701 100.281 24.5881 102.696 24.5795C105.111 24.571 107.493 25.1362 109.647 26.2286C111.645 27.2945 113.286 28.9214 114.371 30.9089C115.514 33.0463 116.089 35.4415 116.041 37.8649C116.046 38.7421 115.979 39.6183 115.842 40.4846ZM109.005 35.9209C109.02 35.1256 108.858 34.3368 108.532 33.6115C108.205 32.8861 107.722 32.2421 107.117 31.7258C105.857 30.6644 104.251 30.1035 102.605 30.1504C101.048 30.1086 99.5333 30.6571 98.364 31.6859C97.2154 32.7096 96.5121 34.1243 96.2542 35.9301L109.005 35.9209Z" fill="white"/>
<path d="M123.891 51.1259C122.256 50.421 120.829 49.3099 119.745 47.8982C118.748 46.5972 118.164 45.0264 118.071 43.3898H124.907C124.972 43.9008 125.141 44.3928 125.406 44.8347C125.67 45.2767 126.023 45.6589 126.443 45.9573C127.403 46.6577 128.569 47.0166 129.757 46.9769C131.049 46.9769 132.058 46.7179 132.785 46.1999C133.12 45.9881 133.396 45.6947 133.587 45.3472C133.779 44.9998 133.879 44.6095 133.878 44.2129C133.878 43.3407 133.434 42.6865 132.545 42.2504C131.176 41.6527 129.755 41.1789 128.301 40.8347C126.63 40.4508 124.988 39.949 123.387 39.3329C122.113 38.8164 120.982 38.0012 120.089 36.9559C119.168 35.8912 118.707 34.4529 118.707 32.641C118.693 31.1767 119.141 29.7453 119.988 28.5503C120.922 27.2578 122.198 26.2508 123.673 25.642C125.459 24.8927 127.384 24.5285 129.321 24.5732C132.521 24.5732 135.074 25.3738 136.98 26.9748C138.886 28.5759 139.936 30.739 140.131 33.4641H133.635C133.604 32.9704 133.469 32.4889 133.24 32.0508C133.01 31.6127 132.691 31.2278 132.303 30.9212C131.51 30.2885 130.452 29.9732 129.127 29.9753C127.899 29.9753 126.953 30.1995 126.289 30.654C125.973 30.8549 125.715 31.1349 125.541 31.4661C125.366 31.7974 125.281 32.1685 125.294 32.5427C125.294 33.4497 125.748 34.1366 126.655 34.6034C127.562 35.0702 128.967 35.5473 130.872 36.0346C132.505 36.4227 134.109 36.9256 135.672 37.5394C136.937 38.0552 138.058 38.8697 138.939 39.9133C139.861 40.9964 140.338 42.4296 140.37 44.2129C140.39 45.7032 139.941 47.162 139.087 48.3834C138.154 49.6721 136.877 50.6716 135.401 51.2672C133.627 51.9958 131.721 52.3512 129.803 52.3113C127.77 52.344 125.754 51.9398 123.891 51.1259V51.1259Z" fill="white"/>
<path d="M152.397 30.5926V43.5987C152.397 44.5057 152.615 45.1598 153.051 45.5611C153.49 45.9665 154.224 46.1753 155.259 46.1753H158.41V51.8906H154.144C148.424 51.8906 145.557 49.1113 145.545 43.5526V30.5926H142.36V25.0186H145.561V18.3758H152.397V25.0186H158.41V30.5926H152.397Z" fill="white"/>
<path d="M14.643 30.5926H9.95341V51.8906H3.05267V30.6079H0V25.0155H3.05267V23.6581C3.05267 20.3618 3.99037 17.9376 5.86579 16.3857C7.7412 14.8338 10.5697 14.107 14.3512 14.2052V19.9267C12.701 19.8919 11.5534 20.1662 10.9085 20.7497C10.2636 21.3332 9.94522 22.3836 9.95341 23.9007V25.0155H14.6583L14.643 30.5926Z" fill="white"/>
<path d="M19.222 20.676C18.8473 20.3048 18.5499 19.8631 18.3469 19.3763C18.144 18.8895 18.0395 18.3673 18.0395 17.8399C18.0395 17.3125 18.144 16.7903 18.3469 16.3035C18.5499 15.8167 18.8473 15.3749 19.222 15.0037C20.0419 14.2699 21.1036 13.8642 22.204 13.8642C23.3044 13.8642 24.3661 14.2699 25.186 15.0037C25.5607 15.3749 25.8581 15.8167 26.0611 16.3035C26.264 16.7903 26.3685 17.3125 26.3685 17.8399C26.3685 18.3673 26.264 18.8895 26.0611 19.3763C25.8581 19.8631 25.5607 20.3048 25.186 20.676C24.3661 21.4099 23.3044 21.8156 22.204 21.8156C21.1036 21.8156 20.0419 21.4099 19.222 20.676V20.676ZM25.5484 25.0155V51.8906H18.7613V25.0155H25.5484Z" fill="white"/>
<path d="M54.5917 27.6597C56.5675 29.6866 57.5553 32.5069 57.5553 36.1206V51.8906H50.759V37.0388C50.759 34.9075 50.2267 33.2696 49.162 32.1251C48.0974 30.9806 46.6427 30.4032 44.798 30.393C42.9226 30.393 41.4434 30.9662 40.3603 32.1128C39.2772 33.2593 38.7357 34.8972 38.7357 37.0265V51.8906H31.9486V25.0155H38.7357V28.363C39.6562 27.1874 40.8437 26.2482 42.1999 25.6236C43.65 24.9504 45.2324 24.6105 46.8311 24.6285C50.0332 24.6285 52.6201 25.6389 54.5917 27.6597Z" fill="white"/>
<defs>
<linearGradient id="paint0_linear_1_11" x1="74.0133" y1="4" x2="74.0133" y2="17.069" gradientUnits="userSpaceOnUse">
<stop stop-color="#01D88A"/>
<stop offset="1" stop-color="#00EEE0"/>
</linearGradient>
<linearGradient id="paint1_linear_1_11" x1="74.0087" y1="23.44" x2="74.0087" y2="50.2537" gradientUnits="userSpaceOnUse">
<stop stop-color="#01D88A"/>
<stop offset="1" stop-color="#00EEE0"/>
</linearGradient>
</defs>
</svg>
